<?xml version="1.0" standalone="no"?>
<!DOCTYPE svg PUBLIC "-//W3C//DTD SVG 20010904//EN"
 "http://www.w3.org/TR/2001/REC-SVG-20010904/DTD/svg10.dtd">
<svg version="1.0" xmlns="http://www.w3.org/2000/svg"
 width="512.000000pt" height="512.000000pt" viewBox="0 0 512.000000 512.000000"
 preserveAspectRatio="xMidYMid meet">

<g transform="translate(0.000000,512.000000) scale(0.100000,-0.100000)"
fill="#000000" stroke="none">
<path d="M2370 5113 c-379 -36 -661 -116 -980 -278 -378 -193 -717 -497 -965
-865 -162 -242 -312 -598 -369 -880 -43 -212 -51 -295 -51 -530 0 -236 8 -318
51 -530 51 -247 176 -568 308 -785 l45 -73 -201 -442 c-122 -269 -202 -457
-205 -483 -12 -101 61 -211 157 -237 89 -24 206 3 919 212 l274 80 116 -55
c319 -151 648 -231 1011 -244 581 -20 1142 158 1620 515 132 99 376 338 472
462 496 644 663 1434 468 2210 -59 235 -182 525 -306 720 -197 311 -468 588
-774 791 -129 86 -409 226 -550 274 -204 70 -413 115 -625 135 -102 9 -333 11
-415 3z m457 -458 c926 -119 1658 -827 1820 -1760 25 -144 25 -519 0 -667
-152 -903 -847 -1601 -1747 -1753 -131 -22 -429 -31 -560 -16 -260 30 -498
101 -743 224 -131 65 -165 78 -206 79 -33 0 -171 -33 -401 -97 -194 -53 -354
-94 -356 -92 -3 2 52 128 120 280 69 151 128 293 132 314 9 59 -10 110 -81
219 -236 358 -355 752 -355 1174 0 1071 794 1964 1865 2099 116 14 384 12 512
-4z"/>
<path d="M1675 3721 c-131 -34 -286 -202 -337 -364 -20 -61 -23 -93 -22 -207
1 -116 5 -148 28 -225 149 -499 692 -1073 1291 -1365 164 -80 297 -129 421
-154 348 -72 607 30 735 288 38 77 44 98 44 150 -1 82 -30 142 -102 215 -71
70 -169 129 -288 171 -112 39 -235 51 -281 27 -41 -21 -95 -82 -150 -170 -97
-153 -116 -157 -294 -71 -281 135 -505 330 -681 590 -72 108 -83 136 -65 177
7 17 39 63 70 101 105 127 124 188 101 322 -38 213 -167 424 -304 494 -47 24
-121 33 -166 21z"/>
</g>
</svg>
